<?xml version="1.0" standalone="no"?>
<!DOCTYPE svg PUBLIC "-//W3C//DTD SVG 20010904//EN"
 "http://www.w3.org/TR/2001/REC-SVG-20010904/DTD/svg10.dtd">
<svg version="1.0" xmlns="http://www.w3.org/2000/svg"
 width="512.000000pt" height="512.000000pt" viewBox="0 0 512.000000 512.000000"
 preserveAspectRatio="xMidYMid meet">
<metadata>
Created by potrace 1.14, written by Peter Selinger 2001-2017
</metadata>
<g transform="translate(0.000000,512.000000) scale(0.100000,-0.100000)"
fill="#000000" stroke="none">
<path d="M1778 3903 c-21 -2 -38 -6 -38 -8 0 -2 -20 -109 -45 -237 -25 -128
-45 -239 -45 -245 0 -10 39 -13 163 -13 399 0 855 -29 945 -61 28 -10 31 -16
39 -67 12 -87 9 -504 -5 -622 -18 -150 -49 -328 -78 -452 -30 -126 -3 -114
-275 -124 l-186 -7 -6 44 c-26 180 -47 564 -47 853 l0 198 -22 -5 c-13 -3
-123 -24 -245 -47 l-222 -42 -7 -45 c-3 -24 -4 -202 -1 -396 5 -372 22 -549
68 -752 30 -127 52 -164 119 -197 84 -42 195 -53 525 -53 288 0 420 11 577 47
71 17 98 53 141 189 81 253 132 485 169 766 18 140 22 219 22 478 1 475 -25
585 -156 651 -88 45 -434 111 -727 139 -141 14 -560 18 -663 8z"/>
<path d="M3610 1880 c-91 -10 -169 -19 -175 -19 -6 -1 -10 -32 -10 -73 0 -40
-2 -140 -5 -223 l-5 -150 188 -19 c125 -13 191 -16 198 -9 33 33 60 301 45
446 l-8 67 -31 -1 c-18 -1 -106 -10 -197 -19z"/>
</g>
</svg>
